<svg height="484pt" viewBox="-2 0 484 484.50014" width="484pt" xmlns="http://www.w3.org/2000/svg"><path d="m366.089844 11.621094c-42.679688-11.449219-86.5625 13.875-98 56.558594-3.148438 13.992187-3.09375 28.511718.160156 42.480468h.078125c.402344 2.238282.882813 4.480469 1.441406 6.800782 4.976563 19.347656 11.976563 38.117187 20.878907 56 6.460937 13.410156 13.671874 26.441406 21.601562 39.039062 0 0 4.878906-2.480469 12.558594-6.960938 18.386718-10.523437 35.859375-22.566406 52.242187-36 20.640625-17.199218 39.757813-38.160156 45.597657-60 11.398437-42.65625-13.914063-86.480468-56.558594-97.917968zm-41.839844 63.277344c3.453125-12.789063 16.617188-20.359376 29.410156-16.914063 12.792969 3.445313 20.375 16.605469 16.9375 29.398437-3.4375 12.796876-16.589844 20.386719-29.386718 16.957032-12.808594-3.453125-20.398438-16.628906-16.960938-29.441406zm0 0" fill="#bddbff"/><path d="m336.25 292.5h-96v-184c-101.621094 0-184 82.378906-184 184s82.378906 184 184 184 184-82.378906 184-184zm0 0" fill="#bddbff"/><g fill="#3d9ae2"><path d="m398.648438 183.980469-13.191407 9.039062c18.539063 27.03125 29.105469 58.730469 30.496094 91.480469h-71.886719c-.351562-19.304688-2.335937-38.546875-5.9375-57.519531l-15.703125 3.039062c3.390625 17.972657 5.265625 36.195313 5.601563 54.480469h-79.777344v-96.253906c5.71875-.242188 11.433594-.632813 17.03125-1.363282l-2.0625-15.863281c-4.929688.640625-9.9375 1-14.96875 1.226563v-63.746094c0-4.417969-3.582031-8-8-8-88.277344.003906-165.175781 60.203125-186.371094 145.898438-21.199218 85.691406 18.769532 174.800781 96.863282 215.957031 78.097656 41.15625 174.191406 23.761719 232.902343-42.164063 58.710938-65.925781 64.902344-163.386718 15.003907-236.210937zm-70.503907 116.519531c-.425781 36.980469-7.96875 73.527344-22.214843 107.65625-18.523438-6.738281-37.980469-10.566406-57.679688-11.34375v-96.3125zm-146.460937 122.070312c16.28125-5.734374 33.320312-9.023437 50.566406-9.757812v54.886719c-19.199219-3.640625-36.800781-20.175781-50.566406-45.128907zm7.816406 38.257813c-15.613281-4.714844-30.488281-11.589844-44.195312-20.425781 6.75-4.328125 13.789062-8.1875 21.066406-11.550782 6.167968 11.691407 13.953125 22.457032 23.128906 31.976563zm42.75-64c-19.699219.777344-39.15625 4.605469-57.679688 11.34375-14.25-34.132813-21.792968-70.6875-22.214843-107.671875h79.894531zm16 70.871094v-54.886719c17.246094.734375 34.285156 4.023438 50.566406 9.757812-13.765625 24.953126-31.367187 41.488282-50.566406 45.128907zm65.878906-38.855469c7.28125 3.363281 14.316406 7.222656 21.066406 11.550781-13.707031 8.835938-28.582031 15.710938-44.191406 20.425781 9.171875-9.515624 16.957032-20.277343 23.125-31.96875zm-161.773437-144.34375c.425781-36.976562 7.96875-73.527344 22.214843-107.65625 18.523438 6.742188 37.980469 10.566406 57.679688 11.34375v96.3125zm79.894531-167.199219v54.894531c-17.246094-.734374-34.285156-4.023437-50.566406-9.757812 13.765625-24.960938 31.367187-41.496094 50.566406-45.136719zm-65.878906 38.855469c-7.277344-3.363281-14.316406-7.222656-21.066406-11.550781 13.707031-8.835938 28.582031-15.710938 44.195312-20.425781-9.175781 9.515624-16.960938 20.277343-23.128906 31.96875zm-34.921875-1.65625c8.84375 6.109375 18.183593 11.460938 27.921875 16-14.96875 36.15625-22.785156 74.871094-23.015625 114h-71.714844c2.316406-50.984375 26.703125-98.4375 66.808594-130zm-66.808594 146h71.714844c.234375 39.117188 8.046875 77.820312 23.007812 113.96875-9.742187 4.539062-19.078125 9.890625-27.921875 16-40.09375-31.558594-64.476562-78.996094-66.800781-129.96875zm284.410156 130c-8.84375-6.105469-18.179687-11.460938-27.921875-16 14.96875-36.15625 22.785156-74.871094 23.015625-114h71.714844c-2.316406 50.984375-26.703125 98.4375-66.808594 130zm0 0"/><path d="m312.25 220.5c1.261719 0 2.503906-.296875 3.625-.871094 4.046875-2.058594 99.246094-51.113281 114.503906-108 8.496094-30.492187-.03125-63.195312-22.339844-85.652344-22.308593-22.453124-54.960937-31.195312-85.503906-22.898437-30.546875 8.300781-54.28125 32.367187-62.15625 63.023437-15.25 56.886719 42.695313 146.964844 45.160156 150.773438 1.480469 2.265625 4.003907 3.628906 6.710938 3.625zm-36.425781-150.273438c10.292969-38.410156 49.777343-61.207031 88.191406-50.914062 38.410156 10.292969 61.207031 49.773438 50.914063 88.1875-11.304688 42.167969-78.511719 82.496094-99.832032 94.398438-12.527344-20.972657-50.566406-89.496094-39.273437-131.671876zm0 0"/><path d="m339.160156 112.035156c17.070313 4.574219 34.617188-5.554687 39.195313-22.621094 4.574219-17.070312-5.554688-34.617187-22.621094-39.195312-17.070313-4.578125-34.617187 5.546875-39.195313 22.617188-4.582031 17.074218 5.550782 34.625 22.621094 39.199218zm-7.199218-35.039062c1.875-7.007813 8.234374-11.878906 15.488281-11.863282 1.398437.003907 2.792969.1875 4.144531.542969 8.535156 2.289063 13.597656 11.058594 11.3125 19.59375-2.285156 8.535157-11.058594 13.601563-19.59375 11.316407-8.535156-2.285157-13.601562-11.054688-11.320312-19.589844zm0 0"/><path d="m.25 284.5h16v16h-16zm0 0"/><path d="m2.523438 258.703125 2.773437-15.75 15.757813 2.777344-2.773438 15.75zm0 0"/><path d="m11.988281 217.929688 5.476563-15.035157 15.03125 5.476563-5.476563 15.035156zm0 0"/><path d="m28.402344 179.429688 8.003906-13.855469 13.847656 7.996093-8.003906 13.855469zm0 0"/><path d="m51.25 144.363281 10.289062-12.265625 12.257813 10.28125-10.285156 12.265625zm0 0"/><path d="m79.855469 113.792969 12.261719-10.285157 10.285156 12.257813-12.265625 10.289063zm0 0"/><path d="m113.328125 88.664062 13.855469-8.003906 7.996094 13.847656-13.855469 8.003907zm0 0"/><path d="m150.648438 69.714844 15.03125-5.476563 5.476562 15.03125-15.03125 5.480469zm0 0"/><path d="m190.707031 57.535156 15.75-2.769531 2.773438 15.757813-15.75 2.769531zm0 0"/><path d="m430.238281 173.570312 13.847657-8 8.003906 13.855469-13.847656 8zm0 0"/><path d="m448.003906 208.375 15.035156-5.476562 5.476563 15.035156-15.03125 5.476562zm0 0"/><path d="m459.460938 245.726562 15.757812-2.773437 2.769531 15.75-15.757812 2.773437zm0 0"/><path d="m464.25 284.5h16v16h-16zm0 0"/><path d="m459.457031 339.273438 2.773438-15.75 15.757812 2.773437-2.773437 15.75zm0 0"/><path d="m448.003906 376.625 5.476563-15.035156 15.035156 5.476562-5.476563 15.035156zm0 0"/><path d="m430.246094 411.429688 8-13.851563 13.847656 7.996094-8 13.855469zm0 0"/><path d="m406.699219 442.613281 10.289062-12.265625 12.257813 10.28125-10.285156 12.265625zm0 0"/><path d="m378.101562 469.238281 12.265626-10.285156 10.28125 12.257813-12.265626 10.285156zm0 0"/><path d="m79.855469 471.214844 10.277343-12.261719 12.269532 10.28125-10.28125 12.261719zm0 0"/><path d="m51.257812 440.628906 12.261719-10.277344 10.285157 12.265626-12.261719 10.28125zm0 0"/><path d="m28.410156 405.5625 13.847656-7.992188 8 13.855469-13.851562 7.996094zm0 0"/><path d="m11.984375 367.066406 15.035156-5.476562 5.476563 15.03125-15.03125 5.476562zm0 0"/><path d="m2.511719 326.296875 15.757812-2.773437 2.769531 15.75-15.757812 2.773437zm0 0"/></g></svg>