<?xml version="1.0" encoding="iso-8859-1"?>
<!-- Generator: Adobe Illustrator 19.0.0, SVG Export Plug-In . SVG Version: 6.00 Build 0)  -->
<svg xmlns="http://www.w3.org/2000/svg" xmlns:xlink="http://www.w3.org/1999/xlink" version="1.1" id="Layer_1" x="0px" y="0px" viewBox="0 0 491.501 491.501" style="enable-background:new 0 0 491.501 491.501;" xml:space="preserve" width="512" height="512">
<g>
	<path style="fill:#5C5E70;" d="M357.67,360.419h-43.004c-4.142,0-7.5-3.358-7.5-7.5v-93.475c0-4.142,3.358-7.5,7.5-7.5h43.004   c4.142,0,7.5,3.358,7.5,7.5v93.475C365.17,357.061,361.812,360.419,357.67,360.419z M322.165,345.419h28.004v-78.475h-28.004   V345.419z"/>
	<path style="fill:#E8C57E;" d="M339.105,281.842c-3.621,0-6.808-2.629-7.397-6.319c-4.664-29.213-20.667-38.23-42.816-50.711   c-20.407-11.5-43.537-24.533-61.969-56.528c-2.068-3.589-0.834-8.175,2.754-10.242c3.589-2.068,8.175-0.834,10.243,2.755   c16.38,28.432,36.692,39.878,56.336,50.947c22.863,12.884,44.459,25.053,50.265,61.414c0.653,4.09-2.133,7.936-6.224,8.589   C339.897,281.811,339.498,281.842,339.105,281.842z"/>
	<path style="fill:#E8C57E;" d="M87.236,322.486c-4.042,0-7.376-3.217-7.493-7.284c-0.964-33.513,6.398-69.326,20.731-100.842   c12.574-27.649,29.146-48.484,43.25-54.373c3.82-1.595,8.215,0.208,9.811,4.031c1.596,3.823-0.209,8.215-4.031,9.811   c-8.675,3.622-22.978,19.479-35.375,46.74c-13.405,29.475-20.292,62.93-19.392,94.201c0.119,4.14-3.141,7.593-7.281,7.712   C87.382,322.485,87.308,322.486,87.236,322.486z"/>
	<path style="fill:#F4A14E;" d="M219.272,121.04h16.171h19.635V68.293c0-37.717-30.575-68.292-68.292-68.292h0h-0.009   c-37.717,0-68.292,30.575-68.292,68.292v52.747h19.635h16.18"/>
	<path style="fill:#D87D2A;" d="M201.585,1.62c-30.6,6.75-53.49,34.04-53.49,66.67v52.75h-29.61V68.29   c0-37.71,30.58-68.29,68.29-68.29h0.01C191.865,0,196.815,0.56,201.585,1.62z"/>
	<path style="fill:#FFDC8D;" d="M235.447,58.215h-97.329l0.001,0.001v26.598c0,26.875,21.783,48.666,48.666,48.666   c26.875,0,48.658-21.792,48.658-48.666V58.216"/>
	<path style="fill:#E8C57E;" d="M198.52,132.054c-3.75,0.94-7.68,1.43-11.73,1.43c-26.89,0-48.67-21.79-48.67-48.67v-26.6h23.46   v26.6C161.58,107.654,177.3,126.814,198.52,132.054z"/>
	<path style="fill:#FF75B1;" d="M243.407,246.07h-112.92c0-70.37,16.39-96.19,16.39-96.19h20.52l4.51,6.54   c7.26,10.53,22.82,10.53,30.08,0l4.51-6.54h20.52C227.017,149.88,243.407,175.7,243.407,246.07z"/>
	<path style="fill:#D83F67;" d="M159.077,242.67l-2,3.4h-26.59c0-70.37,16.39-96.19,16.39-96.19h20.52l4.51,6.54   C152.557,167.85,159.077,242.67,159.077,242.67z"/>
	<g>
		<path style="fill:#3B3D4C;" d="M202.444,97.405c-4.142,0-7.5-3.358-7.5-7.5v-9.857c0-4.142,3.358-7.5,7.5-7.5s7.5,3.358,7.5,7.5    v9.857C209.944,94.047,206.586,97.405,202.444,97.405z"/>
		<path style="fill:#3B3D4C;" d="M171.445,97.405c-4.142,0-7.5-3.358-7.5-7.5v-9.857c0-4.142,3.358-7.5,7.5-7.5s7.5,3.358,7.5,7.5    v9.857C178.945,94.047,175.588,97.405,171.445,97.405z"/>
	</g>
	<g>
		<line style="fill:#FFDC8D;" x1="140.659" y1="490.001" x2="170.844" y2="490.001"/>
		<line style="fill:#FFDC8D;" x1="233.232" y1="490.001" x2="203.047" y2="490.001"/>
		<path style="fill:#FFDC8D;" d="M181.6,380.54c-0.78,5.34-1.5,10.55-2.18,15.64c-7.24,54.69-8.58,93.82-8.58,93.82h-18.57    c-4.77-21.9-6.82-69.19-7.59-93.82c-0.29-9.51-0.4-15.64-0.4-15.64H181.6z"/>
		<path style="fill:#FFDC8D;" d="M229.61,380.54c0,0-0.11,6.13-0.41,15.64c-0.76,24.63-2.81,71.92-7.59,93.82h-18.57    c0,0-1.34-39.13-8.58-93.82c-0.68-5.09-1.4-10.3-2.18-15.64H229.61z"/>
		<path style="fill:#E8C57E;" d="M161.63,490h-9.36c-6.61-30.35-7.99-109.46-7.99-109.46h13.54    C157.76,398.26,157.9,451.67,161.63,490z"/>
		<path style="fill:#E8C57E;" d="M209.8,490h-6.76c0,0-1.6-46.74-10.76-109.46h11.87C211.09,412.74,210.35,469.25,209.8,490z"/>
		<path style="fill:#E8C57E;" d="M144.28,380.54l23.036-6.843l14.284,6.843c-0.78,5.34-1.5,10.55-2.18,15.64h-34.74    C144.39,386.67,144.28,380.54,144.28,380.54z"/>
		<path style="fill:#E8C57E;" d="M229.61,380.54c0,0-0.11,6.13-0.41,15.64h-34.74c-0.68-5.09-1.4-10.3-2.18-15.64l18.475-8.146    L229.61,380.54z"/>
	</g>
	<g>
		<line style="fill:#FFDC8D;" x1="140.659" y1="490.001" x2="170.844" y2="490.001"/>
		<line style="fill:#FFDC8D;" x1="233.232" y1="490.001" x2="203.047" y2="490.001"/>
	</g>
	<g>
		<path style="fill:#FF75B1;" d="M170.844,491.501h-30.185c-4.142,0-7.5-3.358-7.5-7.5s3.358-7.5,7.5-7.5h30.185    c4.142,0,7.5,3.358,7.5,7.5S174.986,491.501,170.844,491.501z"/>
		<path style="fill:#FF75B1;" d="M233.232,491.501h-30.186c-4.142,0-7.5-3.358-7.5-7.5s3.358-7.5,7.5-7.5h30.186    c4.142,0,7.5,3.358,7.5,7.5S237.374,491.501,233.232,491.501z"/>
	</g>
	<path style="fill:#5C5E70;" d="M262.777,380.54h-151.66c-5.87-71.35,19.37-134.47,19.37-134.47c10.44-1.49,19.8-2.62,28.59-3.4   h0.01c9.75-0.87,18.81-1.3,27.86-1.3c17.21,0,34.41,1.56,56.46,4.7C243.407,246.07,268.637,309.19,262.777,380.54z"/>
	<path style="fill:#3B3D4C;" d="M154.117,380.54h-43c-5.87-71.35,19.37-134.47,19.37-134.47c10.44-1.49,19.8-2.62,28.59-3.4h0.01   C150.207,272.05,141.417,352.2,154.117,380.54z"/>
	<path style="fill:#3B3D4C;" d="M392.648,491.501c-4.142,0-7.5-3.358-7.5-7.5v-10.193c0-4.142,3.358-7.5,7.5-7.5s7.5,3.358,7.5,7.5   v10.193C400.148,488.143,396.79,491.501,392.648,491.501z"/>
	<path style="fill:#3B3D4C;" d="M334.278,491.501c-4.142,0-7.5-3.358-7.5-7.5v-10.193c0-4.142,3.358-7.5,7.5-7.5s7.5,3.358,7.5,7.5   v10.193C341.778,488.143,338.42,491.501,334.278,491.501z"/>
	<path style="fill:#3B3D4C;" d="M304.617,491.501c-4.142,0-7.5-3.358-7.5-7.5v-10.193c0-4.142,3.358-7.5,7.5-7.5s7.5,3.358,7.5,7.5   v10.193C312.117,488.143,308.759,491.501,304.617,491.501z"/>
	<path style="fill:#1895B7;" d="M411.842,352.919v107.69c0,10.6-8.59,19.2-19.19,19.2h-88.035c-10.6,0-19.2-8.6-19.2-19.2v-107.69   c0-10.6,8.6-19.2,19.2-19.2h88.035C403.252,333.719,411.842,342.319,411.842,352.919z"/>
	<path style="fill:#34ABE0;" d="M411.842,352.919v107.69c0,10.6-8.59,19.2-19.19,19.2h-58.375c-10.6,0-19.2-8.6-19.2-19.2v-107.69   c0-10.6,8.6-19.2,19.2-19.2h58.375C403.252,333.719,411.842,342.319,411.842,352.919z"/>
	<rect x="155.588" y="58.215" style="fill:#E8C57E;" width="79.859" height="7.936"/>
</g>















</svg>
