<?xml version="1.0" encoding="iso-8859-1"?>
<!-- Generator: Adobe Illustrator 19.0.0, SVG Export Plug-In . SVG Version: 6.00 Build 0)  -->
<svg xmlns="http://www.w3.org/2000/svg" xmlns:xlink="http://www.w3.org/1999/xlink" version="1.1" id="Layer_1" x="0px" y="0px" viewBox="0 0 512 512" style="enable-background:new 0 0 512 512;" xml:space="preserve" width="512" height="512">
<g>
	<polygon style="fill:#3E5959;" points="422,286 392,286 392,241 330,241 330,286 300,286 300,211 422,211  "/>
	<rect x="452" y="467" style="fill:#3E5959;" width="30" height="45"/>
	<polygon style="fill:#663325;" points="482,301 300,301 270,331 240,396 270,482 392,482 404.5,452 422,482 512,482 512,331  "/>
	<rect x="392" y="301" style="fill:#3C1B13;" width="30" height="181"/>
	<polygon style="fill:#8C4A37;" points="512,331 270,331 240,292.25 270,271 512,271  "/>
	<rect x="30" y="467" style="fill:#537983;" width="30" height="45"/>
	<rect x="210" y="467" style="fill:#3E5959;" width="30" height="45"/>
	<rect x="180" y="15" style="fill:#293939;" width="30" height="151"/>
	<rect x="60" y="15" style="fill:#3E5959;" width="30" height="151"/>
	<path style="fill:#FF641A;" d="M0,151v331h270V151H0z"/>
	<rect x="135" y="151" style="fill:#F03800;" width="135" height="331"/>
	<rect x="180" y="241" style="fill:#AE2538;" width="30" height="150"/>
	<rect x="120" y="241" style="fill:#F03800;" width="30" height="150"/>
	<rect x="60" y="241" style="fill:#F03800;" width="30" height="150"/>
	<rect x="30" style="fill:#FF641A;" width="210" height="30"/>
	<rect x="135" y="241" style="fill:#AE2538;" width="15" height="150"/>
	<rect x="135" style="fill:#F03800;" width="105" height="30"/>
</g>















</svg>
